<mxfile host="app.diagrams.net" modified="2023-12-08T16:54:36.040Z" agent="Mozilla/5.0 (Windows NT 10.0; Win64; x64; rv:120.0) Gecko/20100101 Firefox/120.0" etag="atC9VP1D7O2YZCcpUADP" version="22.1.7" type="device">
  <diagram name="Page-1" id="3NZP-CWDgKf4xzH1paXa">
    <mxGraphModel dx="1500" dy="946" grid="1" gridSize="10" guides="1" tooltips="1" connect="1" arrows="1" fold="1" page="1" pageScale="1" pageWidth="1100" pageHeight="850" math="0" shadow="0">
      <root>
        <mxCell id="0" />
        <mxCell id="1" parent="0" />
        <mxCell id="OBixX9FioB8ukmCa500w-1" value="&lt;h1&gt;Grant claim: Get records for profile&lt;/h1&gt;" style="text;html=1;align=center;verticalAlign=middle;resizable=0;points=[];autosize=1;strokeColor=none;fillColor=none;" parent="1" vertex="1">
          <mxGeometry x="272.5" y="10" width="420" height="70" as="geometry" />
        </mxCell>
        <mxCell id="OBixX9FioB8ukmCa500w-2" value="" style="shape=umlLifeline;perimeter=lifelinePerimeter;whiteSpace=wrap;html=1;container=1;dropTarget=0;collapsible=0;recursiveResize=0;outlineConnect=0;portConstraint=eastwest;newEdgeStyle={&quot;curved&quot;:0,&quot;rounded&quot;:0};participant=umlActor;" parent="1" vertex="1">
          <mxGeometry x="100" y="125" width="20" height="835" as="geometry" />
        </mxCell>
        <mxCell id="OBixX9FioB8ukmCa500w-3" value="Claim" style="shape=umlLifeline;perimeter=lifelinePerimeter;whiteSpace=wrap;html=1;container=1;dropTarget=0;collapsible=0;recursiveResize=0;outlineConnect=0;portConstraint=eastwest;newEdgeStyle={&quot;curved&quot;:0,&quot;rounded&quot;:0};" parent="1" vertex="1">
          <mxGeometry x="170" y="125" width="100" height="835" as="geometry" />
        </mxCell>
        <mxCell id="OBixX9FioB8ukmCa500w-4" value="ProfileToUserAdmin" style="shape=umlLifeline;perimeter=lifelinePerimeter;whiteSpace=wrap;html=1;container=1;dropTarget=0;collapsible=0;recursiveResize=0;outlineConnect=0;portConstraint=eastwest;newEdgeStyle={&quot;curved&quot;:0,&quot;rounded&quot;:0};" parent="1" vertex="1">
          <mxGeometry x="315" y="125" width="155" height="835" as="geometry" />
        </mxCell>
        <mxCell id="OBixX9FioB8ukmCa500w-5" value="ProfileToRecordAttribution" style="shape=umlLifeline;perimeter=lifelinePerimeter;whiteSpace=wrap;html=1;container=1;dropTarget=0;collapsible=0;recursiveResize=0;outlineConnect=0;portConstraint=eastwest;newEdgeStyle={&quot;curved&quot;:0,&quot;rounded&quot;:0};" parent="1" vertex="1">
          <mxGeometry x="500" y="125" width="155" height="835" as="geometry" />
        </mxCell>
        <mxCell id="OBixX9FioB8ukmCa500w-31" value="" style="html=1;points=[[0,0,0,0,5],[0,1,0,0,-5],[1,0,0,0,5],[1,1,0,0,-5]];perimeter=orthogonalPerimeter;outlineConnect=0;targetShapes=umlLifeline;portConstraint=eastwest;newEdgeStyle={&quot;curved&quot;:0,&quot;rounded&quot;:0};" parent="OBixX9FioB8ukmCa500w-5" vertex="1">
          <mxGeometry x="75" y="440" width="5" height="300" as="geometry" />
        </mxCell>
        <mxCell id="OBixX9FioB8ukmCa500w-6" value="PublicProfile" style="shape=umlLifeline;perimeter=lifelinePerimeter;whiteSpace=wrap;html=1;container=1;dropTarget=0;collapsible=0;recursiveResize=0;outlineConnect=0;portConstraint=eastwest;newEdgeStyle={&quot;curved&quot;:0,&quot;rounded&quot;:0};" parent="1" vertex="1">
          <mxGeometry x="680" y="125" width="145" height="835" as="geometry" />
        </mxCell>
        <mxCell id="OBixX9FioB8ukmCa500w-7" value="" style="endArrow=classic;html=1;rounded=0;" parent="1" edge="1">
          <mxGeometry width="50" height="50" relative="1" as="geometry">
            <mxPoint x="109.5" y="200" as="sourcePoint" />
            <mxPoint x="219.5" y="200" as="targetPoint" />
          </mxGeometry>
        </mxCell>
        <mxCell id="OBixX9FioB8ukmCa500w-11" value="grant claim" style="edgeLabel;html=1;align=center;verticalAlign=middle;resizable=0;points=[];" parent="OBixX9FioB8ukmCa500w-7" vertex="1" connectable="0">
          <mxGeometry x="-0.1545" y="-1" relative="1" as="geometry">
            <mxPoint y="-11" as="offset" />
          </mxGeometry>
        </mxCell>
        <mxCell id="OBixX9FioB8ukmCa500w-12" value="GlobalAdminProfile" style="text;html=1;align=center;verticalAlign=middle;resizable=0;points=[];autosize=1;strokeColor=none;fillColor=none;" parent="1" vertex="1">
          <mxGeometry x="45" y="95" width="130" height="30" as="geometry" />
        </mxCell>
        <mxCell id="OBixX9FioB8ukmCa500w-13" value="" style="endArrow=classic;html=1;rounded=0;" parent="1" edge="1">
          <mxGeometry width="50" height="50" relative="1" as="geometry">
            <mxPoint x="220" y="230" as="sourcePoint" />
            <mxPoint x="392" y="230" as="targetPoint" />
          </mxGeometry>
        </mxCell>
        <mxCell id="OBixX9FioB8ukmCa500w-14" value="grantRecordsToProfile" style="edgeLabel;html=1;align=center;verticalAlign=middle;resizable=0;points=[];" parent="OBixX9FioB8ukmCa500w-13" vertex="1" connectable="0">
          <mxGeometry x="-0.1545" y="-1" relative="1" as="geometry">
            <mxPoint y="-11" as="offset" />
          </mxGeometry>
        </mxCell>
        <mxCell id="OBixX9FioB8ukmCa500w-15" value="&lt;div&gt;-userID&lt;/div&gt;&lt;div&gt;- recordList: list[recordID]&lt;br&gt;&lt;/div&gt;-profileID&lt;br&gt;-profileDetails: Profile" style="text;html=1;align=center;verticalAlign=middle;resizable=0;points=[];autosize=1;strokeColor=none;fillColor=none;" parent="1" vertex="1">
          <mxGeometry x="225" y="225" width="150" height="70" as="geometry" />
        </mxCell>
        <mxCell id="OBixX9FioB8ukmCa500w-42" value="alt" style="shape=umlFrame;whiteSpace=wrap;html=1;pointerEvents=0;" parent="1" vertex="1">
          <mxGeometry x="480" y="650" width="320" height="130" as="geometry" />
        </mxCell>
        <mxCell id="OBixX9FioB8ukmCa500w-40" value="delete(oldProfileID)" style="html=1;verticalAlign=bottom;endArrow=block;curved=0;rounded=0;entryX=0;entryY=0;entryDx=0;entryDy=5;" parent="1" target="OBixX9FioB8ukmCa500w-39" edge="1">
          <mxGeometry relative="1" as="geometry">
            <mxPoint x="577.166666666667" y="675" as="sourcePoint" />
          </mxGeometry>
        </mxCell>
        <mxCell id="OBixX9FioB8ukmCa500w-41" value="return" style="html=1;verticalAlign=bottom;endArrow=open;dashed=1;endSize=8;curved=0;rounded=0;exitX=0;exitY=1;exitDx=0;exitDy=-5;" parent="1" source="OBixX9FioB8ukmCa500w-39" edge="1">
          <mxGeometry relative="1" as="geometry">
            <mxPoint x="577.166666666667" y="745" as="targetPoint" />
          </mxGeometry>
        </mxCell>
        <mxCell id="OBixX9FioB8ukmCa500w-39" value="" style="html=1;points=[[0,0,0,0,5],[0,1,0,0,-5],[1,0,0,0,5],[1,1,0,0,-5]];perimeter=orthogonalPerimeter;outlineConnect=0;targetShapes=umlLifeline;portConstraint=eastwest;newEdgeStyle={&quot;curved&quot;:0,&quot;rounded&quot;:0};" parent="1" vertex="1">
          <mxGeometry x="747.5" y="670" width="10" height="80" as="geometry" />
        </mxCell>
        <mxCell id="OBixX9FioB8ukmCa500w-43" value="&lt;div&gt;[if record is the&amp;nbsp;&lt;/div&gt;&lt;div&gt;last one]&lt;/div&gt;" style="text;html=1;align=center;verticalAlign=middle;resizable=0;points=[];autosize=1;strokeColor=none;fillColor=none;" parent="1" vertex="1">
          <mxGeometry x="482.5" y="685" width="100" height="40" as="geometry" />
        </mxCell>
        <mxCell id="OBixX9FioB8ukmCa500w-18" value="alt" style="shape=umlFrame;whiteSpace=wrap;html=1;pointerEvents=0;" parent="1" vertex="1">
          <mxGeometry x="280" y="360" width="550" height="140" as="geometry" />
        </mxCell>
        <mxCell id="OBixX9FioB8ukmCa500w-8" value="" style="html=1;points=[[0,0,0,0,5],[0,1,0,0,-5],[1,0,0,0,5],[1,1,0,0,-5]];perimeter=orthogonalPerimeter;outlineConnect=0;targetShapes=umlLifeline;portConstraint=eastwest;newEdgeStyle={&quot;curved&quot;:0,&quot;rounded&quot;:0};" parent="1" vertex="1">
          <mxGeometry x="750" y="405" width="10" height="80" as="geometry" />
        </mxCell>
        <mxCell id="OBixX9FioB8ukmCa500w-21" value="[if no profileID&lt;br&gt;in claim]" style="text;html=1;align=center;verticalAlign=middle;resizable=0;points=[];autosize=1;strokeColor=none;fillColor=none;" parent="1" vertex="1">
          <mxGeometry x="290" y="405" width="90" height="40" as="geometry" />
        </mxCell>
        <mxCell id="OBixX9FioB8ukmCa500w-51" value="loop" style="shape=umlFrame;whiteSpace=wrap;html=1;pointerEvents=0;" parent="1" vertex="1">
          <mxGeometry x="280" y="530" width="550" height="370" as="geometry" />
        </mxCell>
        <mxCell id="OBixX9FioB8ukmCa500w-52" value="&lt;div&gt;[for each recordID&lt;/div&gt;&lt;div&gt;in recordList]&lt;/div&gt;" style="text;html=1;align=center;verticalAlign=middle;resizable=0;points=[];autosize=1;strokeColor=none;fillColor=none;" parent="1" vertex="1">
          <mxGeometry x="267.5" y="560" width="120" height="40" as="geometry" />
        </mxCell>
        <mxCell id="OBixX9FioB8ukmCa500w-53" value="patch(profileID, recordID, delete)" style="text;html=1;align=center;verticalAlign=middle;resizable=0;points=[];autosize=1;strokeColor=none;fillColor=none;" parent="1" vertex="1">
          <mxGeometry x="390" y="545" width="190" height="30" as="geometry" />
        </mxCell>
        <mxCell id="OBixX9FioB8ukmCa500w-32" value="" style="html=1;verticalAlign=bottom;endArrow=block;curved=0;rounded=0;entryX=0;entryY=0;entryDx=0;entryDy=5;" parent="1" edge="1">
          <mxGeometry x="0.2632" y="5" relative="1" as="geometry">
            <mxPoint x="390" y="572" as="sourcePoint" />
            <mxPoint x="575" y="572" as="targetPoint" />
            <mxPoint as="offset" />
          </mxGeometry>
        </mxCell>
        <mxCell id="OBixX9FioB8ukmCa500w-9" value="createPublicProfile(profileDetails)" style="html=1;verticalAlign=bottom;endArrow=block;curved=0;rounded=0;entryX=0;entryY=0;entryDx=0;entryDy=5;" parent="1" target="OBixX9FioB8ukmCa500w-8" edge="1" source="OBixX9FioB8ukmCa500w-4">
          <mxGeometry x="0.8" y="5" relative="1" as="geometry">
            <mxPoint x="410" y="410" as="sourcePoint" />
            <mxPoint as="offset" />
          </mxGeometry>
        </mxCell>
        <mxCell id="OBixX9FioB8ukmCa500w-10" value="return profileID" style="html=1;verticalAlign=bottom;endArrow=open;dashed=1;endSize=8;curved=0;rounded=0;exitX=0;exitY=1;exitDx=0;exitDy=-5;" parent="1" source="OBixX9FioB8ukmCa500w-8" edge="1" target="OBixX9FioB8ukmCa500w-4">
          <mxGeometry relative="1" as="geometry">
            <mxPoint x="400" y="480" as="targetPoint" />
          </mxGeometry>
        </mxCell>
        <mxCell id="OBixX9FioB8ukmCa500w-33" value="" style="html=1;verticalAlign=bottom;endArrow=open;dashed=1;endSize=8;curved=0;rounded=0;exitX=0;exitY=1;exitDx=0;exitDy=-5;exitPerimeter=0;" parent="1" source="OBixX9FioB8ukmCa500w-31" edge="1" target="OBixX9FioB8ukmCa500w-4">
          <mxGeometry x="-0.1053" y="-5" relative="1" as="geometry">
            <mxPoint x="390" y="678" as="targetPoint" />
            <mxPoint x="570" y="678" as="sourcePoint" />
            <mxPoint as="offset" />
          </mxGeometry>
        </mxCell>
        <mxCell id="pK1J0-vozsTdUuLyJ1UB-4" value="" style="html=1;points=[[0,0,0,0,5],[0,1,0,0,-5],[1,0,0,0,5],[1,1,0,0,-5]];perimeter=orthogonalPerimeter;outlineConnect=0;targetShapes=umlLifeline;portConstraint=eastwest;newEdgeStyle={&quot;curved&quot;:0,&quot;rounded&quot;:0};" vertex="1" parent="1">
          <mxGeometry x="575" y="600" width="10" height="40" as="geometry" />
        </mxCell>
        <mxCell id="pK1J0-vozsTdUuLyJ1UB-5" value="getAllRecordsForProfile(oldProfileID)" style="html=1;align=left;spacingLeft=2;endArrow=block;rounded=0;edgeStyle=orthogonalEdgeStyle;curved=0;rounded=0;" edge="1" target="pK1J0-vozsTdUuLyJ1UB-4" parent="1">
          <mxGeometry relative="1" as="geometry">
            <mxPoint x="580" y="580" as="sourcePoint" />
            <Array as="points">
              <mxPoint x="610" y="610" />
            </Array>
          </mxGeometry>
        </mxCell>
        <mxCell id="pK1J0-vozsTdUuLyJ1UB-6" value="" style="html=1;points=[[0,0,0,0,5],[0,1,0,0,-5],[1,0,0,0,5],[1,1,0,0,-5]];perimeter=orthogonalPerimeter;outlineConnect=0;targetShapes=umlLifeline;portConstraint=eastwest;newEdgeStyle={&quot;curved&quot;:0,&quot;rounded&quot;:0};" vertex="1" parent="1">
          <mxGeometry x="575" y="810" width="10" height="40" as="geometry" />
        </mxCell>
        <mxCell id="pK1J0-vozsTdUuLyJ1UB-7" value="patch(recordID, profileID)" style="html=1;align=left;spacingLeft=2;endArrow=block;rounded=0;edgeStyle=orthogonalEdgeStyle;curved=0;rounded=0;" edge="1" target="pK1J0-vozsTdUuLyJ1UB-6" parent="1">
          <mxGeometry relative="1" as="geometry">
            <mxPoint x="580" y="790" as="sourcePoint" />
            <Array as="points">
              <mxPoint x="610" y="820" />
            </Array>
          </mxGeometry>
        </mxCell>
      </root>
    </mxGraphModel>
  </diagram>
</mxfile>
